<svg xmlns="http://www.w3.org/2000/svg" viewBox="0 0 183.25 55">
<defs>
<style>path.cls-1{fill:#151348;}.cls-2{fill:#151348;}.cls-3{fill:#e54e4d;}</style>
</defs><title>tpl-logo_1</title><g id="Layer_2" data-name="Layer 2"><g id="Layer_1-2" data-name="Layer 1"><g class="text"><path class="cls-1" d="M55.2,7H49V1.43h18.9V7H61.6v22.1H55.2Z"></path><path class="cls-1" d="M82.63,6.56v6.27H93.08v5H82.63v6.08H93.08v5.13H76.24V1.43H93.08V6.56Z"></path><path class="cls-1" d="M117.43,1.43h7.06l-8.2,13.81,8.2,13.81h-7.06l-4.81-8.88-4.82,8.88h-7L109,15.24,100.78,1.43h7l4.82,8.92Z"></path><path class="cls-1" d="M148.72,29.05l-1.06-3.36h-9.83l-1.06,3.36h-6.83L139.8,1.43h5.88l10,27.62Zm-6-19.73-3.39,11.36h6.71Z"></path><path class="cls-1" d="M168.85,19.9c0,3,1.81,4.77,4.42,4.77a3.33,3.33,0,0,0,3.63-3.24c0-2.21-1.9-3-4.3-3.86-5.09-1.86-9.36-3.48-9.36-9.08,0-5.09,4.66-7.77,9.71-7.77,6.55,0,9.83,4.1,9.83,8.8h-6.4c0-2.45-1.22-4-3.43-4-1.81,0-3.35,1-3.35,2.84s1.61,2.8,3.94,3.63c4.54,1.58,9.71,3.4,9.71,8.92,0,5.68-4.3,8.84-10.38,8.84-5.92,0-10.42-3.55-10.42-9.86Z"></path><path class="cls-1" d="M53.93,37.46h4.14a4,4,0,1,1,0,8H55.46v3.75H53.93Zm6.65,4a2.5,2.5,0,0,0-2.51-2.63H55.46v5.25h2.61A2.49,2.49,0,0,0,60.58,41.47Z"></path><path class="cls-1" d="M67.71,43.35a6.08,6.08,0,1,1,6.07,6.16A6,6,0,0,1,67.71,43.35Zm10.53,0a4.48,4.48,0,1,0-8.93,0,4.48,4.48,0,1,0,8.93,0Z"></path><path class="cls-1" d="M91.6,47.86v1.38H86.22V37.46h1.53v10.4Z"></path><path class="cls-1" d="M97.74,37.46h1.59V49.24H97.74Z"></path><path class="cls-1" d="M117.4,45.61a5.51,5.51,0,0,1-5.52,3.9,6.16,6.16,0,0,1-.22-12.32c3.42,0,5.3,1.94,5.74,4.39h-1.62a3.76,3.76,0,0,0-3.93-3,4.54,4.54,0,0,0-4.58,4.76,4.59,4.59,0,0,0,4.79,4.8,3.92,3.92,0,0,0,3.66-2.52Z"></path><path class="cls-1" d="M126.37,49.24h-1.69L127,44.56l-4.44-7.1h1.78l3.45,5.5,2.78-5.5h1.68Z"></path><path class="cls-1" d="M152.08,47.86v1.38h-5.39V37.46h1.53v10.4Z"></path><path class="cls-1" d="M164.61,49.24l-.62-1.8h-4.78l-.61,1.8H157l4.06-11.78h1.11l4.07,11.78Zm-3-9.27L159.68,46h3.84Z"></path><path class="cls-1" d="M172,37.46h4c2.85,0,3.59,1.8,3.59,3.15a2.7,2.7,0,0,1-2.11,2.66A2.64,2.64,0,0,1,179.69,46c0,1.34-.81,3.26-3.65,3.26h-4Zm4.06,5.13a1.82,1.82,0,0,0,2-1.86,1.85,1.85,0,0,0-2-1.89h-2.49v3.75ZM173.53,44v3.87h2.58a1.85,1.85,0,0,0,2-1.93,1.92,1.92,0,0,0-2-1.94Z"></path></g><g id="no-text"><polygon class="cls-2" points="40.28 0 40.28 31.65 31.91 31.65 31.91 8.37 8.37 8.37 8.37 48.39 0 48.39 0 0 40.28 0"></polygon><polygon class="cls-3" points="24.45 40.02 24.45 31.65 15.96 31.65 15.96 48.39 40.02 48.39 40.02 40.02 24.45 40.02"></polygon><polygon class="cls-3" points="20.03 13.96 21.46 18.35 26.07 18.35 22.34 21.07 23.77 25.46 20.03 22.74 16.29 25.46 17.72 21.07 13.98 18.35 18.6 18.35 20.03 13.96"></polygon></g></g></g></svg>